<?xml version="1.0" encoding="UTF-8" standalone="no"?>
<!DOCTYPE svg PUBLIC "-//W3C//DTD SVG 1.1//EN"
 "http://www.w3.org/Graphics/SVG/1.1/DTD/svg11.dtd">
<!-- Generated by graphviz version 2.40.1 (20161225.0304)
 -->
<!-- Title: CFG for &#39;fft&#39; function Pages: 1 -->
<svg width="839pt" height="1602pt"
 viewBox="0.00 0.00 839.26 1602.00" xmlns="http://www.w3.org/2000/svg" xmlns:xlink="http://www.w3.org/1999/xlink">
<g id="graph0" class="graph" transform="scale(1 1) rotate(0) translate(4 1598)">
<title>CFG for &#39;fft&#39; function</title>
<polygon fill="#ffffff" stroke="transparent" points="-4,4 -4,-1598 835.2561,-1598 835.2561,4 -4,4"/>
<text text-anchor="middle" x="415.6281" y="-7.8" font-family="Times,serif" font-size="14.00" fill="#000000">CFG for &#39;fft&#39; function</text>
<!-- Node0x55f014484620 -->
<g id="node1" class="node">
<title>Node0x55f014484620</title>
<polygon fill="none" stroke="#000000" points="505.7561,-1555.5 505.7561,-1593.5 737.7561,-1593.5 737.7561,-1555.5 505.7561,-1555.5"/>
<text text-anchor="start" x="513.7561" y="-1578.3" font-family="Times,serif" font-size="14.00" fill="#000000">entry:</text>
<text text-anchor="start" x="513.7561" y="-1563.3" font-family="Times,serif" font-size="14.00" fill="#000000"> br label %inner, !UID !3, !BB_UID !4</text>
</g>
<!-- Node0x55f014484670 -->
<g id="node2" class="node">
<title>Node0x55f014484670</title>
<polygon fill="none" stroke="#000000" points="412.2561,-1397.5 412.2561,-1518.5 831.2561,-1518.5 831.2561,-1397.5 412.2561,-1397.5"/>
<text text-anchor="start" x="420.2561" y="-1503.3" font-family="Times,serif" font-size="14.00" fill="#000000">inner: </text>
<text text-anchor="start" x="420.2561" y="-1488.3" font-family="Times,serif" font-size="14.00" fill="#000000"> %log.0115 = phi i32 [ 0, %entry ], [ %inc54, %for.inc53 ], !UID !5</text>
<text text-anchor="start" x="420.2561" y="-1473.3" font-family="Times,serif" font-size="14.00" fill="#000000"> %span.0113 = phi i32 [ 512, %entry ], [ %shr, %for.inc53 ], !UID !6</text>
<text text-anchor="start" x="420.2561" y="-1458.3" font-family="Times,serif" font-size="14.00" fill="#000000"> %cmp111 = icmp slt i32 %span.0113, 1024, !UID !7</text>
<text text-anchor="start" x="420.2561" y="-1443.3" font-family="Times,serif" font-size="14.00" fill="#000000"> br i1 %cmp111, label %for.body2.preheader, label %for.inc53, !UID !8,</text>
<text text-anchor="start" x="420.2561" y="-1428.3" font-family="Times,serif" font-size="14.00" fill="#000000">... !BB_UID !9</text>
<polyline fill="none" stroke="#000000" points="412.2561,-1420.5 831.2561,-1420.5 "/>
<text text-anchor="middle" x="517.2561" y="-1405.3" font-family="Times,serif" font-size="14.00" fill="#000000">T</text>
<polyline fill="none" stroke="#000000" points="622.2561,-1397.5 622.2561,-1420.5 "/>
<text text-anchor="middle" x="726.7561" y="-1405.3" font-family="Times,serif" font-size="14.00" fill="#000000">F</text>
</g>
<!-- Node0x55f014484620&#45;&gt;Node0x55f014484670 -->
<g id="edge1" class="edge">
<title>Node0x55f014484620&#45;&gt;Node0x55f014484670</title>
<path fill="none" stroke="#000000" d="M621.7561,-1555.2624C621.7561,-1547.6838 621.7561,-1538.4747 621.7561,-1528.7794"/>
<polygon fill="#000000" stroke="#000000" points="625.2562,-1528.5479 621.7561,-1518.548 618.2562,-1528.548 625.2562,-1528.5479"/>
</g>
<!-- Node0x55f0144846c0 -->
<g id="node3" class="node">
<title>Node0x55f0144846c0</title>
<polygon fill="none" stroke="#000000" points="267.2561,-1322.5 267.2561,-1360.5 538.2561,-1360.5 538.2561,-1322.5 267.2561,-1322.5"/>
<text text-anchor="start" x="275.2561" y="-1345.3" font-family="Times,serif" font-size="14.00" fill="#000000">for.body2.preheader: </text>
<text text-anchor="start" x="275.2561" y="-1330.3" font-family="Times,serif" font-size="14.00" fill="#000000"> br label %for.body2, !UID !10, !BB_UID !11</text>
</g>
<!-- Node0x55f014484670&#45;&gt;Node0x55f0144846c0 -->
<g id="edge2" class="edge">
<title>Node0x55f014484670:s0&#45;&gt;Node0x55f0144846c0</title>
<path fill="none" stroke="#000000" d="M411.7561,-1409C395.274,-1409 394.0746,-1388.9812 396.4005,-1370.7476"/>
<polygon fill="#000000" stroke="#000000" points="399.8901,-1371.0933 398.0343,-1360.6622 392.9802,-1369.9739 399.8901,-1371.0933"/>
</g>
<!-- Node0x55f014484850 -->
<g id="node4" class="node">
<title>Node0x55f014484850</title>
<polygon fill="none" stroke="#000000" points="367.7561,-98.5 367.7561,-204.5 795.7561,-204.5 795.7561,-98.5 367.7561,-98.5"/>
<text text-anchor="start" x="375.7561" y="-189.3" font-family="Times,serif" font-size="14.00" fill="#000000">for.inc53: </text>
<text text-anchor="start" x="375.7561" y="-174.3" font-family="Times,serif" font-size="14.00" fill="#000000"> %shr = ashr i32 %span.0113, 1, !UID !65</text>
<text text-anchor="start" x="375.7561" y="-159.3" font-family="Times,serif" font-size="14.00" fill="#000000"> %inc54 = add nuw nsw i32 %log.0115, 1, !UID !66</text>
<text text-anchor="start" x="375.7561" y="-144.3" font-family="Times,serif" font-size="14.00" fill="#000000"> %exitcond = icmp eq i32 %inc54, 10, !UID !67</text>
<text text-anchor="start" x="375.7561" y="-129.3" font-family="Times,serif" font-size="14.00" fill="#000000"> br i1 %exitcond, label %for.end55, label %inner, !UID !68, !BB_UID !69</text>
<polyline fill="none" stroke="#000000" points="367.7561,-121.5 795.7561,-121.5 "/>
<text text-anchor="middle" x="474.7561" y="-106.3" font-family="Times,serif" font-size="14.00" fill="#000000">T</text>
<polyline fill="none" stroke="#000000" points="581.7561,-98.5 581.7561,-121.5 "/>
<text text-anchor="middle" x="688.7561" y="-106.3" font-family="Times,serif" font-size="14.00" fill="#000000">F</text>
</g>
<!-- Node0x55f014484670&#45;&gt;Node0x55f014484850 -->
<g id="edge3" class="edge">
<title>Node0x55f014484670:s1&#45;&gt;Node0x55f014484850</title>
<path fill="none" stroke="#000000" d="M726.7561,-1397C726.7561,-1237.2222 726.7561,-1197.2778 726.7561,-1037.5 726.7561,-1037.5 726.7561,-1037.5 726.7561,-606 726.7561,-459.9594 657.9675,-299.4788 615.1493,-213.7322"/>
<polygon fill="#000000" stroke="#000000" points="618.2035,-212.0153 610.5768,-204.6611 611.9527,-215.1662 618.2035,-212.0153"/>
</g>
<!-- Node0x55f014484710 -->
<g id="node5" class="node">
<title>Node0x55f014484710</title>
<polygon fill="none" stroke="#000000" points="52.7561,-789.5 52.7561,-1285.5 524.7561,-1285.5 524.7561,-789.5 52.7561,-789.5"/>
<text text-anchor="start" x="60.7561" y="-1270.3" font-family="Times,serif" font-size="14.00" fill="#000000">for.body2: </text>
<text text-anchor="start" x="60.7561" y="-1255.3" font-family="Times,serif" font-size="14.00" fill="#000000"> %odd.0112 = phi i32 [ %inc, %for.inc ], [ %span.0113, %for.body2.preheader</text>
<text text-anchor="start" x="60.7561" y="-1240.3" font-family="Times,serif" font-size="14.00" fill="#000000">... ], !UID !12</text>
<text text-anchor="start" x="60.7561" y="-1225.3" font-family="Times,serif" font-size="14.00" fill="#000000"> %or = or i32 %odd.0112, %span.0113, !UID !13</text>
<text text-anchor="start" x="60.7561" y="-1210.3" font-family="Times,serif" font-size="14.00" fill="#000000"> %xor = xor i32 %or, %span.0113, !UID !14</text>
<text text-anchor="start" x="60.7561" y="-1195.3" font-family="Times,serif" font-size="14.00" fill="#000000"> %idxprom = sext i32 %xor to i64, !UID !15</text>
<text text-anchor="start" x="60.7561" y="-1180.3" font-family="Times,serif" font-size="14.00" fill="#000000"> %arrayidx = getelementptr inbounds double, double* %real, i64 %idxprom, !UID</text>
<text text-anchor="start" x="60.7561" y="-1165.3" font-family="Times,serif" font-size="14.00" fill="#000000">... !16</text>
<text text-anchor="start" x="60.7561" y="-1150.3" font-family="Times,serif" font-size="14.00" fill="#000000"> %0 = load double, double* %arrayidx, align 8, !tbaa !17, !UID !21</text>
<text text-anchor="start" x="60.7561" y="-1135.3" font-family="Times,serif" font-size="14.00" fill="#000000"> %idxprom3 = sext i32 %or to i64, !UID !22</text>
<text text-anchor="start" x="60.7561" y="-1120.3" font-family="Times,serif" font-size="14.00" fill="#000000"> %arrayidx4 = getelementptr inbounds double, double* %real, i64 %idxprom3,</text>
<text text-anchor="start" x="60.7561" y="-1105.3" font-family="Times,serif" font-size="14.00" fill="#000000">... !UID !23</text>
<text text-anchor="start" x="60.7561" y="-1090.3" font-family="Times,serif" font-size="14.00" fill="#000000"> %1 = load double, double* %arrayidx4, align 8, !tbaa !17, !UID !24</text>
<text text-anchor="start" x="60.7561" y="-1075.3" font-family="Times,serif" font-size="14.00" fill="#000000"> %add = fadd double %0, %1, !UID !25</text>
<text text-anchor="start" x="60.7561" y="-1060.3" font-family="Times,serif" font-size="14.00" fill="#000000"> %sub = fsub double %0, %1, !UID !26</text>
<text text-anchor="start" x="60.7561" y="-1045.3" font-family="Times,serif" font-size="14.00" fill="#000000"> store double %sub, double* %arrayidx4, align 8, !tbaa !17, !UID !27</text>
<text text-anchor="start" x="60.7561" y="-1030.3" font-family="Times,serif" font-size="14.00" fill="#000000"> store double %add, double* %arrayidx, align 8, !tbaa !17, !UID !28</text>
<text text-anchor="start" x="60.7561" y="-1015.3" font-family="Times,serif" font-size="14.00" fill="#000000"> %arrayidx14 = getelementptr inbounds double, double* %img, i64 %idxprom,</text>
<text text-anchor="start" x="60.7561" y="-1000.3" font-family="Times,serif" font-size="14.00" fill="#000000">... !UID !29</text>
<text text-anchor="start" x="60.7561" y="-985.3" font-family="Times,serif" font-size="14.00" fill="#000000"> %2 = load double, double* %arrayidx14, align 8, !tbaa !17, !UID !30</text>
<text text-anchor="start" x="60.7561" y="-970.3" font-family="Times,serif" font-size="14.00" fill="#000000"> %arrayidx16 = getelementptr inbounds double, double* %img, i64 %idxprom3,</text>
<text text-anchor="start" x="60.7561" y="-955.3" font-family="Times,serif" font-size="14.00" fill="#000000">... !UID !31</text>
<text text-anchor="start" x="60.7561" y="-940.3" font-family="Times,serif" font-size="14.00" fill="#000000"> %3 = load double, double* %arrayidx16, align 8, !tbaa !17, !UID !32</text>
<text text-anchor="start" x="60.7561" y="-925.3" font-family="Times,serif" font-size="14.00" fill="#000000"> %add17 = fadd double %2, %3, !UID !33</text>
<text text-anchor="start" x="60.7561" y="-910.3" font-family="Times,serif" font-size="14.00" fill="#000000"> %sub22 = fsub double %2, %3, !UID !34</text>
<text text-anchor="start" x="60.7561" y="-895.3" font-family="Times,serif" font-size="14.00" fill="#000000"> store double %sub22, double* %arrayidx16, align 8, !tbaa !17, !UID !35</text>
<text text-anchor="start" x="60.7561" y="-880.3" font-family="Times,serif" font-size="14.00" fill="#000000"> store double %add17, double* %arrayidx14, align 8, !tbaa !17, !UID !36</text>
<text text-anchor="start" x="60.7561" y="-865.3" font-family="Times,serif" font-size="14.00" fill="#000000"> %shl = shl i32 %xor, %log.0115, !UID !37</text>
<text text-anchor="start" x="60.7561" y="-850.3" font-family="Times,serif" font-size="14.00" fill="#000000"> %and = and i32 %shl, 1023, !UID !38</text>
<text text-anchor="start" x="60.7561" y="-835.3" font-family="Times,serif" font-size="14.00" fill="#000000"> %tobool27 = icmp eq i32 %and, 0, !UID !39</text>
<text text-anchor="start" x="60.7561" y="-820.3" font-family="Times,serif" font-size="14.00" fill="#000000"> br i1 %tobool27, label %for.inc, label %if.then, !UID !40, !BB_UID !41</text>
<polyline fill="none" stroke="#000000" points="52.7561,-812.5 524.7561,-812.5 "/>
<text text-anchor="middle" x="170.7561" y="-797.3" font-family="Times,serif" font-size="14.00" fill="#000000">T</text>
<polyline fill="none" stroke="#000000" points="288.7561,-789.5 288.7561,-812.5 "/>
<text text-anchor="middle" x="406.7561" y="-797.3" font-family="Times,serif" font-size="14.00" fill="#000000">F</text>
</g>
<!-- Node0x55f0144846c0&#45;&gt;Node0x55f014484710 -->
<g id="edge4" class="edge">
<title>Node0x55f0144846c0&#45;&gt;Node0x55f014484710</title>
<path fill="none" stroke="#000000" d="M395.6249,-1322.4834C392.8539,-1315.094 389.3808,-1305.8323 385.3956,-1295.2051"/>
<polygon fill="#000000" stroke="#000000" points="388.5548,-1293.6617 381.7664,-1285.5273 382.0005,-1296.1196 388.5548,-1293.6617"/>
</g>
<!-- Node0x55f014484850&#45;&gt;Node0x55f014484670 -->
<g id="edge12" class="edge">
<title>Node0x55f014484850:s1&#45;&gt;Node0x55f014484670</title>
<path fill="none" stroke="#000000" d="M688.7561,-98.5C688.7561,-74.7222 778.9427,-81.6866 795.7561,-98.5 829.2259,-131.9697 809.2163,-159.6208 795.7561,-205 770.9544,-288.616 688.7561,-282.2832 688.7561,-369.5 688.7561,-1037.5 688.7561,-1037.5 688.7561,-1037.5 688.7561,-1161.8142 659.8453,-1304.2548 640.0061,-1387.3654"/>
<polygon fill="#000000" stroke="#000000" points="636.576,-1386.6596 637.6342,-1397.2015 643.381,-1388.3006 636.576,-1386.6596"/>
</g>
<!-- Node0x55f0144848a0 -->
<g id="node9" class="node">
<title>Node0x55f0144848a0</title>
<polygon fill="none" stroke="#000000" points="373.2561,-23.5 373.2561,-61.5 576.2561,-61.5 576.2561,-23.5 373.2561,-23.5"/>
<text text-anchor="start" x="381.2561" y="-46.3" font-family="Times,serif" font-size="14.00" fill="#000000">for.end55: </text>
<text text-anchor="start" x="381.2561" y="-31.3" font-family="Times,serif" font-size="14.00" fill="#000000"> ret void, !UID !70, !BB_UID !71</text>
</g>
<!-- Node0x55f014484850&#45;&gt;Node0x55f0144848a0 -->
<g id="edge11" class="edge">
<title>Node0x55f014484850:s0&#45;&gt;Node0x55f0144848a0</title>
<path fill="none" stroke="#000000" d="M474.7561,-98.5C474.7561,-89.791 474.7561,-80.3202 474.7561,-71.687"/>
<polygon fill="#000000" stroke="#000000" points="478.2562,-71.6793 474.7561,-61.6793 471.2562,-71.6794 478.2562,-71.6793"/>
</g>
<!-- Node0x55f0144847b0 -->
<g id="node6" class="node">
<title>Node0x55f0144847b0</title>
<polygon fill="none" stroke="#000000" points="39.7561,-316.5 39.7561,-422.5 493.7561,-422.5 493.7561,-316.5 39.7561,-316.5"/>
<text text-anchor="start" x="47.7561" y="-407.3" font-family="Times,serif" font-size="14.00" fill="#000000">for.inc: </text>
<text text-anchor="start" x="47.7561" y="-392.3" font-family="Times,serif" font-size="14.00" fill="#000000"> %inc = add nsw i32 %or, 1, !UID !59</text>
<text text-anchor="start" x="47.7561" y="-377.3" font-family="Times,serif" font-size="14.00" fill="#000000"> %cmp = icmp slt i32 %or, 1023, !UID !60</text>
<text text-anchor="start" x="47.7561" y="-362.3" font-family="Times,serif" font-size="14.00" fill="#000000"> br i1 %cmp, label %for.body2, label %for.inc53.loopexit, !UID !61, !BB_UID</text>
<text text-anchor="start" x="47.7561" y="-347.3" font-family="Times,serif" font-size="14.00" fill="#000000">... !62</text>
<polyline fill="none" stroke="#000000" points="39.7561,-339.5 493.7561,-339.5 "/>
<text text-anchor="middle" x="153.2561" y="-324.3" font-family="Times,serif" font-size="14.00" fill="#000000">T</text>
<polyline fill="none" stroke="#000000" points="266.7561,-316.5 266.7561,-339.5 "/>
<text text-anchor="middle" x="380.2561" y="-324.3" font-family="Times,serif" font-size="14.00" fill="#000000">F</text>
</g>
<!-- Node0x55f014484710&#45;&gt;Node0x55f0144847b0 -->
<g id="edge5" class="edge">
<title>Node0x55f014484710:s0&#45;&gt;Node0x55f0144847b0</title>
<path fill="none" stroke="#000000" d="M170.7561,-789.5C170.7561,-642.6051 115.6304,-593.9056 173.7561,-459 178.1795,-448.7337 184.4105,-439.0699 191.5767,-430.1636"/>
<polygon fill="#000000" stroke="#000000" points="194.2588,-432.4125 198.093,-422.5358 188.9364,-427.8657 194.2588,-432.4125"/>
</g>
<!-- Node0x55f014484760 -->
<g id="node7" class="node">
<title>Node0x55f014484760</title>
<polygon fill="none" stroke="#000000" points="182.7561,-459.5 182.7561,-752.5 660.7561,-752.5 660.7561,-459.5 182.7561,-459.5"/>
<text text-anchor="start" x="190.7561" y="-737.3" font-family="Times,serif" font-size="14.00" fill="#000000">if.then: </text>
<text text-anchor="start" x="190.7561" y="-722.3" font-family="Times,serif" font-size="14.00" fill="#000000"> %4 = zext i32 %and to i64, !UID !42</text>
<text text-anchor="start" x="190.7561" y="-707.3" font-family="Times,serif" font-size="14.00" fill="#000000"> %arrayidx29 = getelementptr inbounds double, double* %real_twid, i64 %4,</text>
<text text-anchor="start" x="190.7561" y="-692.3" font-family="Times,serif" font-size="14.00" fill="#000000">... !UID !43</text>
<text text-anchor="start" x="190.7561" y="-677.3" font-family="Times,serif" font-size="14.00" fill="#000000"> %5 = load double, double* %arrayidx29, align 8, !tbaa !17, !UID !44</text>
<text text-anchor="start" x="190.7561" y="-662.3" font-family="Times,serif" font-size="14.00" fill="#000000"> %6 = load double, double* %arrayidx4, align 8, !tbaa !17, !UID !45</text>
<text text-anchor="start" x="190.7561" y="-647.3" font-family="Times,serif" font-size="14.00" fill="#000000"> %mul = fmul double %5, %6, !UID !46</text>
<text text-anchor="start" x="190.7561" y="-632.3" font-family="Times,serif" font-size="14.00" fill="#000000"> %arrayidx33 = getelementptr inbounds double, double* %img_twid, i64 %4, !UID</text>
<text text-anchor="start" x="190.7561" y="-617.3" font-family="Times,serif" font-size="14.00" fill="#000000">... !47</text>
<text text-anchor="start" x="190.7561" y="-602.3" font-family="Times,serif" font-size="14.00" fill="#000000"> %7 = load double, double* %arrayidx33, align 8, !tbaa !17, !UID !48</text>
<text text-anchor="start" x="190.7561" y="-587.3" font-family="Times,serif" font-size="14.00" fill="#000000"> %8 = load double, double* %arrayidx16, align 8, !tbaa !17, !UID !49</text>
<text text-anchor="start" x="190.7561" y="-572.3" font-family="Times,serif" font-size="14.00" fill="#000000"> %mul36 = fmul double %7, %8, !UID !50</text>
<text text-anchor="start" x="190.7561" y="-557.3" font-family="Times,serif" font-size="14.00" fill="#000000"> %sub37 = fsub double %mul, %mul36, !UID !51</text>
<text text-anchor="start" x="190.7561" y="-542.3" font-family="Times,serif" font-size="14.00" fill="#000000"> %mul42 = fmul double %5, %8, !UID !52</text>
<text text-anchor="start" x="190.7561" y="-527.3" font-family="Times,serif" font-size="14.00" fill="#000000"> %mul47 = fmul double %6, %7, !UID !53</text>
<text text-anchor="start" x="190.7561" y="-512.3" font-family="Times,serif" font-size="14.00" fill="#000000"> %add48 = fadd double %mul47, %mul42, !UID !54</text>
<text text-anchor="start" x="190.7561" y="-497.3" font-family="Times,serif" font-size="14.00" fill="#000000"> store double %add48, double* %arrayidx16, align 8, !tbaa !17, !UID !55</text>
<text text-anchor="start" x="190.7561" y="-482.3" font-family="Times,serif" font-size="14.00" fill="#000000"> store double %sub37, double* %arrayidx4, align 8, !tbaa !17, !UID !56</text>
<text text-anchor="start" x="190.7561" y="-467.3" font-family="Times,serif" font-size="14.00" fill="#000000"> br label %for.inc, !UID !57, !BB_UID !58</text>
</g>
<!-- Node0x55f014484710&#45;&gt;Node0x55f014484760 -->
<g id="edge6" class="edge">
<title>Node0x55f014484710:s1&#45;&gt;Node0x55f014484760</title>
<path fill="none" stroke="#000000" d="M406.7561,-789.5C406.7561,-780.7911 406.9261,-771.8574 407.2297,-762.8454"/>
<polygon fill="#000000" stroke="#000000" points="410.7351,-762.7739 407.6274,-752.6451 403.7404,-762.5011 410.7351,-762.7739"/>
</g>
<!-- Node0x55f0144847b0&#45;&gt;Node0x55f014484710 -->
<g id="edge8" class="edge">
<title>Node0x55f0144847b0:s0&#45;&gt;Node0x55f014484710</title>
<path fill="none" stroke="#000000" d="M39.7561,-327.5C-59.3513,-327.5 46.5202,-576.9608 149.1896,-780.1463"/>
<polygon fill="#000000" stroke="#000000" points="146.1233,-781.8385 153.7657,-789.1765 152.3673,-778.6743 146.1233,-781.8385"/>
</g>
<!-- Node0x55f014484800 -->
<g id="node8" class="node">
<title>Node0x55f014484800</title>
<polygon fill="none" stroke="#000000" points="319.2561,-241.5 319.2561,-279.5 586.2561,-279.5 586.2561,-241.5 319.2561,-241.5"/>
<text text-anchor="start" x="327.2561" y="-264.3" font-family="Times,serif" font-size="14.00" fill="#000000">for.inc53.loopexit: </text>
<text text-anchor="start" x="327.2561" y="-249.3" font-family="Times,serif" font-size="14.00" fill="#000000"> br label %for.inc53, !UID !63, !BB_UID !64</text>
</g>
<!-- Node0x55f0144847b0&#45;&gt;Node0x55f014484800 -->
<g id="edge9" class="edge">
<title>Node0x55f0144847b0:s1&#45;&gt;Node0x55f014484800</title>
<path fill="none" stroke="#000000" d="M493.7561,-327.5C513.7408,-327.5 497.4095,-305.5443 479.7913,-286.7699"/>
<polygon fill="#000000" stroke="#000000" points="482.2539,-284.2815 472.7892,-279.5203 477.219,-289.1446 482.2539,-284.2815"/>
</g>
<!-- Node0x55f014484760&#45;&gt;Node0x55f0144847b0 -->
<g id="edge7" class="edge">
<title>Node0x55f014484760&#45;&gt;Node0x55f0144847b0</title>
<path fill="none" stroke="#000000" d="M325.576,-459.2477C319.2777,-449.6377 313.1544,-440.2948 307.3864,-431.4939"/>
<polygon fill="#000000" stroke="#000000" points="310.1524,-429.3292 301.7435,-422.8839 304.2978,-433.1663 310.1524,-429.3292"/>
</g>
<!-- Node0x55f014484800&#45;&gt;Node0x55f014484850 -->
<g id="edge10" class="edge">
<title>Node0x55f014484800&#45;&gt;Node0x55f014484850</title>
<path fill="none" stroke="#000000" d="M475.5218,-241.2639C485.5848,-232.761 498.023,-222.2513 510.8025,-211.4531"/>
<polygon fill="#000000" stroke="#000000" points="513.406,-213.8354 518.7855,-204.7078 508.8881,-208.4885 513.406,-213.8354"/>
</g>
</g>
</svg>
