<?xml version="1.0" encoding="UTF-8" standalone="no"?>
<!DOCTYPE svg PUBLIC "-//W3C//DTD SVG 1.1//EN"
 "http://www.w3.org/Graphics/SVG/1.1/DTD/svg11.dtd">
<!-- Generated by graphviz version 2.40.1 (20161225.0304)
 -->
<!-- Title: CFG for &#39;bbgemm&#39; function Pages: 1 -->
<svg width="794pt" height="1505pt"
 viewBox="0.00 0.00 793.96 1505.00" xmlns="http://www.w3.org/2000/svg" xmlns:xlink="http://www.w3.org/1999/xlink">
<g id="graph0" class="graph" transform="scale(1 1) rotate(0) translate(4 1501)">
<title>CFG for &#39;bbgemm&#39; function</title>
<polygon fill="#ffffff" stroke="transparent" points="-4,4 -4,-1501 789.9588,-1501 789.9588,4 -4,4"/>
<text text-anchor="middle" x="392.9794" y="-7.8" font-family="Times,serif" font-size="14.00" fill="#000000">CFG for &#39;bbgemm&#39; function</text>
<!-- Node0x55f971c743b0 -->
<g id="node1" class="node">
<title>Node0x55f971c743b0</title>
<polygon fill="none" stroke="#000000" points="441.4588,-1458.5 441.4588,-1496.5 683.4588,-1496.5 683.4588,-1458.5 441.4588,-1458.5"/>
<text text-anchor="start" x="449.4588" y="-1481.3" font-family="Times,serif" font-size="14.00" fill="#000000">entry:</text>
<text text-anchor="start" x="449.4588" y="-1466.3" font-family="Times,serif" font-size="14.00" fill="#000000"> br label %loopkk, !UID !3, !BB_UID !4</text>
</g>
<!-- Node0x55f971c7f6c0 -->
<g id="node2" class="node">
<title>Node0x55f971c7f6c0</title>
<polygon fill="none" stroke="#000000" points="346.9588,-1353.5 346.9588,-1421.5 777.9588,-1421.5 777.9588,-1353.5 346.9588,-1353.5"/>
<text text-anchor="start" x="354.9588" y="-1406.3" font-family="Times,serif" font-size="14.00" fill="#000000">loopkk: </text>
<text text-anchor="start" x="354.9588" y="-1391.3" font-family="Times,serif" font-size="14.00" fill="#000000"> %indvars.iv84 = phi i64 [ 0, %entry ], [ %indvars.iv.next85, %for.inc36 ],</text>
<text text-anchor="start" x="354.9588" y="-1376.3" font-family="Times,serif" font-size="14.00" fill="#000000">... !UID !5</text>
<text text-anchor="start" x="354.9588" y="-1361.3" font-family="Times,serif" font-size="14.00" fill="#000000"> br label %loopi, !UID !6, !BB_UID !7</text>
</g>
<!-- Node0x55f971c743b0&#45;&gt;Node0x55f971c7f6c0 -->
<g id="edge1" class="edge">
<title>Node0x55f971c743b0&#45;&gt;Node0x55f971c7f6c0</title>
<path fill="none" stroke="#000000" d="M562.4588,-1458.4133C562.4588,-1450.6074 562.4588,-1441.2233 562.4588,-1431.8752"/>
<polygon fill="#000000" stroke="#000000" points="565.9589,-1431.822 562.4588,-1421.822 558.9589,-1431.8221 565.9589,-1431.822"/>
</g>
<!-- Node0x55f971c7f710 -->
<g id="node3" class="node">
<title>Node0x55f971c7f710</title>
<polygon fill="none" stroke="#000000" points="195.9588,-1248.5 195.9588,-1316.5 636.9588,-1316.5 636.9588,-1248.5 195.9588,-1248.5"/>
<text text-anchor="start" x="203.9588" y="-1301.3" font-family="Times,serif" font-size="14.00" fill="#000000">loopi: </text>
<text text-anchor="start" x="203.9588" y="-1286.3" font-family="Times,serif" font-size="14.00" fill="#000000"> %indvars.iv82 = phi i64 [ 0, %loopkk ], [ %indvars.iv.next83, %for.inc33 ],</text>
<text text-anchor="start" x="203.9588" y="-1271.3" font-family="Times,serif" font-size="14.00" fill="#000000">... !UID !8</text>
<text text-anchor="start" x="203.9588" y="-1256.3" font-family="Times,serif" font-size="14.00" fill="#000000"> br label %loopk, !UID !9, !BB_UID !10</text>
</g>
<!-- Node0x55f971c7f6c0&#45;&gt;Node0x55f971c7f710 -->
<g id="edge2" class="edge">
<title>Node0x55f971c7f6c0&#45;&gt;Node0x55f971c7f710</title>
<path fill="none" stroke="#000000" d="M515.0568,-1353.4095C501.4145,-1343.5983 486.4066,-1332.8049 472.3041,-1322.6627"/>
<polygon fill="#000000" stroke="#000000" points="474.2846,-1319.776 464.1226,-1316.7788 470.1975,-1325.4589 474.2846,-1319.776"/>
</g>
<!-- Node0x55f971c7f760 -->
<g id="node4" class="node">
<title>Node0x55f971c7f760</title>
<polygon fill="none" stroke="#000000" points="200.9588,-1128.5 200.9588,-1211.5 631.9588,-1211.5 631.9588,-1128.5 200.9588,-1128.5"/>
<text text-anchor="start" x="208.9588" y="-1196.3" font-family="Times,serif" font-size="14.00" fill="#000000">loopk: </text>
<text text-anchor="start" x="208.9588" y="-1181.3" font-family="Times,serif" font-size="14.00" fill="#000000"> %indvars.iv78 = phi i64 [ 0, %loopi ], [ %indvars.iv.next79, %for.inc30 ],</text>
<text text-anchor="start" x="208.9588" y="-1166.3" font-family="Times,serif" font-size="14.00" fill="#000000">... !UID !11</text>
<text text-anchor="start" x="208.9588" y="-1151.3" font-family="Times,serif" font-size="14.00" fill="#000000"> %0 = shl nsw i64 %indvars.iv78, 6, !UID !12</text>
<text text-anchor="start" x="208.9588" y="-1136.3" font-family="Times,serif" font-size="14.00" fill="#000000"> br label %for.body9, !UID !13, !BB_UID !14</text>
</g>
<!-- Node0x55f971c7f710&#45;&gt;Node0x55f971c7f760 -->
<g id="edge3" class="edge">
<title>Node0x55f971c7f710&#45;&gt;Node0x55f971c7f760</title>
<path fill="none" stroke="#000000" d="M416.4588,-1248.441C416.4588,-1240.0772 416.4588,-1230.9338 416.4588,-1221.9384"/>
<polygon fill="#000000" stroke="#000000" points="419.9589,-1221.8946 416.4588,-1211.8946 412.9589,-1221.8946 419.9589,-1221.8946"/>
</g>
<!-- Node0x55f971c7f7b0 -->
<g id="node5" class="node">
<title>Node0x55f971c7f7b0</title>
<polygon fill="none" stroke="#000000" points="169.4588,-933.5 169.4588,-1091.5 621.4588,-1091.5 621.4588,-933.5 169.4588,-933.5"/>
<text text-anchor="start" x="177.4588" y="-1076.3" font-family="Times,serif" font-size="14.00" fill="#000000">for.body9: </text>
<text text-anchor="start" x="177.4588" y="-1061.3" font-family="Times,serif" font-size="14.00" fill="#000000"> %indvars.iv71 = phi i64 [ 0, %loopk ], [ %indvars.iv.next72, %for.inc27 ],</text>
<text text-anchor="start" x="177.4588" y="-1046.3" font-family="Times,serif" font-size="14.00" fill="#000000">... !UID !15</text>
<text text-anchor="start" x="177.4588" y="-1031.3" font-family="Times,serif" font-size="14.00" fill="#000000"> %1 = add nuw nsw i64 %indvars.iv71, %indvars.iv82, !UID !16</text>
<text text-anchor="start" x="177.4588" y="-1016.3" font-family="Times,serif" font-size="14.00" fill="#000000"> %2 = shl i64 %1, 6, !UID !17</text>
<text text-anchor="start" x="177.4588" y="-1001.3" font-family="Times,serif" font-size="14.00" fill="#000000"> %3 = add nuw nsw i64 %indvars.iv71, %indvars.iv82, !UID !18</text>
<text text-anchor="start" x="177.4588" y="-986.3" font-family="Times,serif" font-size="14.00" fill="#000000"> %4 = add nuw nsw i64 %3, %0, !UID !19</text>
<text text-anchor="start" x="177.4588" y="-971.3" font-family="Times,serif" font-size="14.00" fill="#000000"> %arrayidx = getelementptr inbounds double, double* %m1, i64 %4, !UID !20</text>
<text text-anchor="start" x="177.4588" y="-956.3" font-family="Times,serif" font-size="14.00" fill="#000000"> %5 = load double, double* %arrayidx, align 8, !tbaa !21, !UID !25</text>
<text text-anchor="start" x="177.4588" y="-941.3" font-family="Times,serif" font-size="14.00" fill="#000000"> br label %for.body16, !UID !26, !BB_UID !27</text>
</g>
<!-- Node0x55f971c7f760&#45;&gt;Node0x55f971c7f7b0 -->
<g id="edge4" class="edge">
<title>Node0x55f971c7f760&#45;&gt;Node0x55f971c7f7b0</title>
<path fill="none" stroke="#000000" d="M410.8863,-1128.2064C409.7798,-1119.9076 408.5789,-1110.9006 407.3521,-1101.7"/>
<polygon fill="#000000" stroke="#000000" points="410.8051,-1101.1142 406.014,-1091.6646 403.8665,-1102.0394 410.8051,-1101.1142"/>
</g>
<!-- Node0x55f971c7f800 -->
<g id="node6" class="node">
<title>Node0x55f971c7f800</title>
<polygon fill="none" stroke="#000000" points="85.9588,-610.5 85.9588,-896.5 564.9588,-896.5 564.9588,-610.5 85.9588,-610.5"/>
<text text-anchor="start" x="93.9588" y="-881.3" font-family="Times,serif" font-size="14.00" fill="#000000">for.body16: </text>
<text text-anchor="start" x="93.9588" y="-866.3" font-family="Times,serif" font-size="14.00" fill="#000000"> %indvars.iv = phi i64 [ 0, %for.body9 ], [ %indvars.iv.next, %for.body16 ],</text>
<text text-anchor="start" x="93.9588" y="-851.3" font-family="Times,serif" font-size="14.00" fill="#000000">... !UID !28</text>
<text text-anchor="start" x="93.9588" y="-836.3" font-family="Times,serif" font-size="14.00" fill="#000000"> %6 = add nuw nsw i64 %indvars.iv, %indvars.iv84, !UID !29</text>
<text text-anchor="start" x="93.9588" y="-821.3" font-family="Times,serif" font-size="14.00" fill="#000000"> %7 = add nuw nsw i64 %6, %2, !UID !30</text>
<text text-anchor="start" x="93.9588" y="-806.3" font-family="Times,serif" font-size="14.00" fill="#000000"> %arrayidx20 = getelementptr inbounds double, double* %m2, i64 %7, !UID !31</text>
<text text-anchor="start" x="93.9588" y="-791.3" font-family="Times,serif" font-size="14.00" fill="#000000"> %8 = load double, double* %arrayidx20, align 8, !tbaa !21, !UID !32</text>
<text text-anchor="start" x="93.9588" y="-776.3" font-family="Times,serif" font-size="14.00" fill="#000000"> %mul21 = fmul double %5, %8, !UID !33</text>
<text text-anchor="start" x="93.9588" y="-761.3" font-family="Times,serif" font-size="14.00" fill="#000000"> %9 = add nuw nsw i64 %indvars.iv, %indvars.iv84, !UID !34</text>
<text text-anchor="start" x="93.9588" y="-746.3" font-family="Times,serif" font-size="14.00" fill="#000000"> %10 = add nuw nsw i64 %9, %0, !UID !35</text>
<text text-anchor="start" x="93.9588" y="-731.3" font-family="Times,serif" font-size="14.00" fill="#000000"> %arrayidx25 = getelementptr inbounds double, double* %prod, i64 %10, !UID !36</text>
<text text-anchor="start" x="93.9588" y="-716.3" font-family="Times,serif" font-size="14.00" fill="#000000"> %11 = load double, double* %arrayidx25, align 8, !tbaa !21, !UID !37</text>
<text text-anchor="start" x="93.9588" y="-701.3" font-family="Times,serif" font-size="14.00" fill="#000000"> %add26 = fadd double %11, %mul21, !UID !38</text>
<text text-anchor="start" x="93.9588" y="-686.3" font-family="Times,serif" font-size="14.00" fill="#000000"> store double %add26, double* %arrayidx25, align 8, !tbaa !21, !UID !39</text>
<text text-anchor="start" x="93.9588" y="-671.3" font-family="Times,serif" font-size="14.00" fill="#000000"> %indvars.iv.next = add nuw nsw i64 %indvars.iv, 1, !UID !40</text>
<text text-anchor="start" x="93.9588" y="-656.3" font-family="Times,serif" font-size="14.00" fill="#000000"> %exitcond = icmp eq i64 %indvars.iv.next, 8, !UID !41</text>
<text text-anchor="start" x="93.9588" y="-641.3" font-family="Times,serif" font-size="14.00" fill="#000000"> br i1 %exitcond, label %for.inc27, label %for.body16, !UID !42, !BB_UID !43</text>
<polyline fill="none" stroke="#000000" points="85.9588,-633.5 564.9588,-633.5 "/>
<text text-anchor="middle" x="205.9588" y="-618.3" font-family="Times,serif" font-size="14.00" fill="#000000">T</text>
<polyline fill="none" stroke="#000000" points="325.9588,-610.5 325.9588,-633.5 "/>
<text text-anchor="middle" x="445.4588" y="-618.3" font-family="Times,serif" font-size="14.00" fill="#000000">F</text>
</g>
<!-- Node0x55f971c7f7b0&#45;&gt;Node0x55f971c7f800 -->
<g id="edge5" class="edge">
<title>Node0x55f971c7f7b0&#45;&gt;Node0x55f971c7f800</title>
<path fill="none" stroke="#000000" d="M374.0761,-933.3841C371.7187,-924.6617 369.2636,-915.5779 366.7642,-906.33"/>
<polygon fill="#000000" stroke="#000000" points="370.1336,-905.382 364.1457,-896.6416 363.3761,-907.2084 370.1336,-905.382"/>
</g>
<!-- Node0x55f971c7f800&#45;&gt;Node0x55f971c7f800 -->
<g id="edge7" class="edge">
<title>Node0x55f971c7f800:s1&#45;&gt;Node0x55f971c7f800</title>
<path fill="none" stroke="#000000" d="M463.5253,-610.2616C538.4897,-566.1371 582.9588,-574.3164 582.9588,-687.5 582.9588,-707.0465 578.5522,-723.4613 570.798,-737.0159"/>
<polygon fill="#000000" stroke="#000000" points="567.783,-735.2313 565.2316,-745.5143 573.6387,-739.0667 567.783,-735.2313"/>
</g>
<!-- Node0x55f971c7f850 -->
<g id="node7" class="node">
<title>Node0x55f971c7f850</title>
<polygon fill="none" stroke="#000000" points="157.4588,-482.5 157.4588,-573.5 621.4588,-573.5 621.4588,-482.5 157.4588,-482.5"/>
<text text-anchor="start" x="165.4588" y="-558.3" font-family="Times,serif" font-size="14.00" fill="#000000">for.inc27: </text>
<text text-anchor="start" x="165.4588" y="-543.3" font-family="Times,serif" font-size="14.00" fill="#000000"> %indvars.iv.next72 = add nuw nsw i64 %indvars.iv71, 1, !UID !44</text>
<text text-anchor="start" x="165.4588" y="-528.3" font-family="Times,serif" font-size="14.00" fill="#000000"> %exitcond77 = icmp eq i64 %indvars.iv.next72, 8, !UID !45</text>
<text text-anchor="start" x="165.4588" y="-513.3" font-family="Times,serif" font-size="14.00" fill="#000000"> br i1 %exitcond77, label %for.inc30, label %for.body9, !UID !46, !BB_UID !47</text>
<polyline fill="none" stroke="#000000" points="157.4588,-505.5 621.4588,-505.5 "/>
<text text-anchor="middle" x="273.4588" y="-490.3" font-family="Times,serif" font-size="14.00" fill="#000000">T</text>
<polyline fill="none" stroke="#000000" points="389.4588,-482.5 389.4588,-505.5 "/>
<text text-anchor="middle" x="505.4588" y="-490.3" font-family="Times,serif" font-size="14.00" fill="#000000">F</text>
</g>
<!-- Node0x55f971c7f800&#45;&gt;Node0x55f971c7f850 -->
<g id="edge6" class="edge">
<title>Node0x55f971c7f800:s0&#45;&gt;Node0x55f971c7f850</title>
<path fill="none" stroke="#000000" d="M205.4588,-610.5C205.4588,-599.218 217.1222,-588.3874 234.576,-578.496"/>
<polygon fill="#000000" stroke="#000000" points="236.3898,-581.4959 243.5837,-573.7179 233.1095,-575.3121 236.3898,-581.4959"/>
</g>
<!-- Node0x55f971c7f850&#45;&gt;Node0x55f971c7f7b0 -->
<g id="edge9" class="edge">
<title>Node0x55f971c7f850:s1&#45;&gt;Node0x55f971c7f7b0</title>
<path fill="none" stroke="#000000" d="M621.4588,-494C643.9096,-494 603.4879,-878.0437 591.4588,-897 584.696,-907.6573 576.5673,-917.4536 567.5192,-926.438"/>
<polygon fill="#000000" stroke="#000000" points="564.9407,-924.059 560.0742,-933.4701 569.7473,-929.1479 564.9407,-924.059"/>
</g>
<!-- Node0x55f971c7f8a0 -->
<g id="node8" class="node">
<title>Node0x55f971c7f8a0</title>
<polygon fill="none" stroke="#000000" points="151.9588,-354.5 151.9588,-445.5 592.9588,-445.5 592.9588,-354.5 151.9588,-354.5"/>
<text text-anchor="start" x="159.9588" y="-430.3" font-family="Times,serif" font-size="14.00" fill="#000000">for.inc30: </text>
<text text-anchor="start" x="159.9588" y="-415.3" font-family="Times,serif" font-size="14.00" fill="#000000"> %indvars.iv.next79 = add nuw nsw i64 %indvars.iv78, 1, !UID !48</text>
<text text-anchor="start" x="159.9588" y="-400.3" font-family="Times,serif" font-size="14.00" fill="#000000"> %exitcond81 = icmp eq i64 %indvars.iv.next79, 64, !UID !49</text>
<text text-anchor="start" x="159.9588" y="-385.3" font-family="Times,serif" font-size="14.00" fill="#000000"> br i1 %exitcond81, label %for.inc33, label %loopk, !UID !50, !BB_UID !51</text>
<polyline fill="none" stroke="#000000" points="151.9588,-377.5 592.9588,-377.5 "/>
<text text-anchor="middle" x="262.4588" y="-362.3" font-family="Times,serif" font-size="14.00" fill="#000000">T</text>
<polyline fill="none" stroke="#000000" points="372.9588,-354.5 372.9588,-377.5 "/>
<text text-anchor="middle" x="482.9588" y="-362.3" font-family="Times,serif" font-size="14.00" fill="#000000">F</text>
</g>
<!-- Node0x55f971c7f850&#45;&gt;Node0x55f971c7f8a0 -->
<g id="edge8" class="edge">
<title>Node0x55f971c7f850:s0&#45;&gt;Node0x55f971c7f8a0</title>
<path fill="none" stroke="#000000" d="M273.4588,-482C273.4588,-471.4549 276.8313,-462.009 282.3315,-453.6158"/>
<polygon fill="#000000" stroke="#000000" points="285.1911,-455.6383 288.4947,-445.5717 279.6345,-451.381 285.1911,-455.6383"/>
</g>
<!-- Node0x55f971c7f8a0&#45;&gt;Node0x55f971c7f760 -->
<g id="edge11" class="edge">
<title>Node0x55f971c7f8a0:s1&#45;&gt;Node0x55f971c7f760</title>
<path fill="none" stroke="#000000" d="M593.4588,-366C674.2301,-366 676.7723,-1025.8254 630.4588,-1092 622.3812,-1103.5416 602.223,-1114.7007 577.3345,-1124.7962"/>
<polygon fill="#000000" stroke="#000000" points="575.9993,-1121.5602 567.9646,-1128.4663 578.5523,-1128.0781 575.9993,-1121.5602"/>
</g>
<!-- Node0x55f971c7f8f0 -->
<g id="node9" class="node">
<title>Node0x55f971c7f8f0</title>
<polygon fill="none" stroke="#000000" points="57.9588,-226.5 57.9588,-317.5 466.9588,-317.5 466.9588,-226.5 57.9588,-226.5"/>
<text text-anchor="start" x="65.9588" y="-302.3" font-family="Times,serif" font-size="14.00" fill="#000000">for.inc33: </text>
<text text-anchor="start" x="65.9588" y="-287.3" font-family="Times,serif" font-size="14.00" fill="#000000"> %indvars.iv.next83 = add nuw nsw i64 %indvars.iv82, 8, !UID !52</text>
<text text-anchor="start" x="65.9588" y="-272.3" font-family="Times,serif" font-size="14.00" fill="#000000"> %cmp2 = icmp ult i64 %indvars.iv.next83, 64, !UID !53</text>
<text text-anchor="start" x="65.9588" y="-257.3" font-family="Times,serif" font-size="14.00" fill="#000000"> br i1 %cmp2, label %loopi, label %for.inc36, !UID !54, !BB_UID !55</text>
<polyline fill="none" stroke="#000000" points="57.9588,-249.5 466.9588,-249.5 "/>
<text text-anchor="middle" x="160.4588" y="-234.3" font-family="Times,serif" font-size="14.00" fill="#000000">T</text>
<polyline fill="none" stroke="#000000" points="262.9588,-226.5 262.9588,-249.5 "/>
<text text-anchor="middle" x="364.9588" y="-234.3" font-family="Times,serif" font-size="14.00" fill="#000000">F</text>
</g>
<!-- Node0x55f971c7f8a0&#45;&gt;Node0x55f971c7f8f0 -->
<g id="edge10" class="edge">
<title>Node0x55f971c7f8a0:s0&#45;&gt;Node0x55f971c7f8f0</title>
<path fill="none" stroke="#000000" d="M262.4588,-354C262.4588,-345.5073 262.4588,-336.5198 262.4588,-327.7293"/>
<polygon fill="#000000" stroke="#000000" points="265.9589,-327.5419 262.4588,-317.542 258.9589,-327.542 265.9589,-327.5419"/>
</g>
<!-- Node0x55f971c7f8f0&#45;&gt;Node0x55f971c7f710 -->
<g id="edge12" class="edge">
<title>Node0x55f971c7f8f0:s0&#45;&gt;Node0x55f971c7f710</title>
<path fill="none" stroke="#000000" d="M57.4588,-238C-71.4301,-238 57.4588,-399.1111 57.4588,-528 57.4588,-1012.5 57.4588,-1012.5 57.4588,-1012.5 57.4588,-1119.3112 105.8809,-1148.0854 191.4588,-1212 209.1006,-1225.1759 229.2622,-1235.9274 250.106,-1244.6915"/>
<polygon fill="#000000" stroke="#000000" points="248.8157,-1247.9451 259.3984,-1248.4532 251.4424,-1241.4566 248.8157,-1247.9451"/>
</g>
<!-- Node0x55f971c7f940 -->
<g id="node10" class="node">
<title>Node0x55f971c7f940</title>
<polygon fill="none" stroke="#000000" points="370.9588,-98.5 370.9588,-189.5 785.9588,-189.5 785.9588,-98.5 370.9588,-98.5"/>
<text text-anchor="start" x="378.9588" y="-174.3" font-family="Times,serif" font-size="14.00" fill="#000000">for.inc36: </text>
<text text-anchor="start" x="378.9588" y="-159.3" font-family="Times,serif" font-size="14.00" fill="#000000"> %indvars.iv.next85 = add nuw nsw i64 %indvars.iv84, 8, !UID !56</text>
<text text-anchor="start" x="378.9588" y="-144.3" font-family="Times,serif" font-size="14.00" fill="#000000"> %cmp = icmp ult i64 %indvars.iv.next85, 64, !UID !57</text>
<text text-anchor="start" x="378.9588" y="-129.3" font-family="Times,serif" font-size="14.00" fill="#000000"> br i1 %cmp, label %loopkk, label %for.end38, !UID !58, !BB_UID !59</text>
<polyline fill="none" stroke="#000000" points="370.9588,-121.5 785.9588,-121.5 "/>
<text text-anchor="middle" x="474.9588" y="-106.3" font-family="Times,serif" font-size="14.00" fill="#000000">T</text>
<polyline fill="none" stroke="#000000" points="578.9588,-98.5 578.9588,-121.5 "/>
<text text-anchor="middle" x="682.4588" y="-106.3" font-family="Times,serif" font-size="14.00" fill="#000000">F</text>
</g>
<!-- Node0x55f971c7f8f0&#45;&gt;Node0x55f971c7f940 -->
<g id="edge13" class="edge">
<title>Node0x55f971c7f8f0:s1&#45;&gt;Node0x55f971c7f940</title>
<path fill="none" stroke="#000000" d="M467.4588,-238C496.8089,-238 522.3884,-218.6242 541.5713,-197.4663"/>
<polygon fill="#000000" stroke="#000000" points="544.4574,-199.4793 548.3444,-189.6232 539.1595,-194.9041 544.4574,-199.4793"/>
</g>
<!-- Node0x55f971c7f940&#45;&gt;Node0x55f971c7f6c0 -->
<g id="edge14" class="edge">
<title>Node0x55f971c7f940:s0&#45;&gt;Node0x55f971c7f6c0</title>
<path fill="none" stroke="#000000" d="M474.4588,-98C474.4588,-98 370.9588,-190 370.9588,-190 399.4817,-229.9941 432.5752,-202.0399 475.4588,-226 581.8703,-285.4547 687.4588,-278.1055 687.4588,-400 687.4588,-1170 687.4588,-1170 687.4588,-1170 687.4588,-1237.8269 683.1903,-1259.9799 646.4588,-1317 639.5435,-1327.7349 630.4859,-1337.684 620.8833,-1346.5222"/>
<polygon fill="#000000" stroke="#000000" points="618.2969,-1344.1356 613.0958,-1353.3659 622.9178,-1349.3938 618.2969,-1344.1356"/>
</g>
<!-- Node0x55f971c7f990 -->
<g id="node11" class="node">
<title>Node0x55f971c7f990</title>
<polygon fill="none" stroke="#000000" points="580.9588,-23.5 580.9588,-61.5 783.9588,-61.5 783.9588,-23.5 580.9588,-23.5"/>
<text text-anchor="start" x="588.9588" y="-46.3" font-family="Times,serif" font-size="14.00" fill="#000000">for.end38: </text>
<text text-anchor="start" x="588.9588" y="-31.3" font-family="Times,serif" font-size="14.00" fill="#000000"> ret void, !UID !60, !BB_UID !61</text>
</g>
<!-- Node0x55f971c7f940&#45;&gt;Node0x55f971c7f990 -->
<g id="edge15" class="edge">
<title>Node0x55f971c7f940:s1&#45;&gt;Node0x55f971c7f990</title>
<path fill="none" stroke="#000000" d="M682.4588,-98C682.4588,-89.4636 682.4588,-80.1887 682.4588,-71.7088"/>
<polygon fill="#000000" stroke="#000000" points="685.9589,-71.5081 682.4588,-61.5081 678.9589,-71.5081 685.9589,-71.5081"/>
</g>
</g>
</svg>
