<?xml version="1.0" encoding="UTF-8" standalone="no"?>
<!DOCTYPE svg PUBLIC "-//W3C//DTD SVG 1.1//EN"
 "http://www.w3.org/Graphics/SVG/1.1/DTD/svg11.dtd">
<!-- Generated by graphviz version 2.40.1 (20161225.0304)
 -->
<!-- Title: CFG for &#39;spmv&#39; function Pages: 1 -->
<svg width="674pt" height="1144pt"
 viewBox="0.00 0.00 674.00 1144.00" xmlns="http://www.w3.org/2000/svg" xmlns:xlink="http://www.w3.org/1999/xlink">
<g id="graph0" class="graph" transform="scale(1 1) rotate(0) translate(4 1140)">
<title>CFG for &#39;spmv&#39; function</title>
<polygon fill="#ffffff" stroke="transparent" points="-4,4 -4,-1140 670,-1140 670,4 -4,4"/>
<text text-anchor="middle" x="333" y="-7.8" font-family="Times,serif" font-size="14.00" fill="#000000">CFG for &#39;spmv&#39; function</text>
<!-- Node0x563f7001b540 -->
<g id="node1" class="node">
<title>Node0x563f7001b540</title>
<polygon fill="none" stroke="#000000" points="307,-1097.5 307,-1135.5 558,-1135.5 558,-1097.5 307,-1097.5"/>
<text text-anchor="start" x="315" y="-1120.3" font-family="Times,serif" font-size="14.00" fill="#000000">entry:</text>
<text text-anchor="start" x="315" y="-1105.3" font-family="Times,serif" font-size="14.00" fill="#000000"> br label %for.body, !UID !3, !BB_UID !4</text>
</g>
<!-- Node0x563f700267f0 -->
<g id="node2" class="node">
<title>Node0x563f700267f0</title>
<polygon fill="none" stroke="#000000" points="199,-849.5 199,-1060.5 666,-1060.5 666,-849.5 199,-849.5"/>
<text text-anchor="start" x="207" y="-1045.3" font-family="Times,serif" font-size="14.00" fill="#000000">for.body: </text>
<text text-anchor="start" x="207" y="-1030.3" font-family="Times,serif" font-size="14.00" fill="#000000"> %indvars.iv37 = phi i64 [ 0, %entry ], [ %indvars.iv.next38, %for.end ],</text>
<text text-anchor="start" x="207" y="-1015.3" font-family="Times,serif" font-size="14.00" fill="#000000">... !UID !5</text>
<text text-anchor="start" x="207" y="-1000.3" font-family="Times,serif" font-size="14.00" fill="#000000"> %arrayidx = getelementptr inbounds i32, i32* %rowDelimiters, i64</text>
<text text-anchor="start" x="207" y="-985.3" font-family="Times,serif" font-size="14.00" fill="#000000">... %indvars.iv37, !UID !6</text>
<text text-anchor="start" x="207" y="-970.3" font-family="Times,serif" font-size="14.00" fill="#000000"> %0 = load i32, i32* %arrayidx, align 4, !tbaa !7, !UID !11</text>
<text text-anchor="start" x="207" y="-955.3" font-family="Times,serif" font-size="14.00" fill="#000000"> %indvars.iv.next38 = add nuw nsw i64 %indvars.iv37, 1, !UID !12</text>
<text text-anchor="start" x="207" y="-940.3" font-family="Times,serif" font-size="14.00" fill="#000000"> %arrayidx2 = getelementptr inbounds i32, i32* %rowDelimiters, i64</text>
<text text-anchor="start" x="207" y="-925.3" font-family="Times,serif" font-size="14.00" fill="#000000">... %indvars.iv.next38, !UID !13</text>
<text text-anchor="start" x="207" y="-910.3" font-family="Times,serif" font-size="14.00" fill="#000000"> %1 = load i32, i32* %arrayidx2, align 4, !tbaa !7, !UID !14</text>
<text text-anchor="start" x="207" y="-895.3" font-family="Times,serif" font-size="14.00" fill="#000000"> %cmp433 = icmp slt i32 %0, %1, !UID !15</text>
<text text-anchor="start" x="207" y="-880.3" font-family="Times,serif" font-size="14.00" fill="#000000"> br i1 %cmp433, label %for.body5.lr.ph, label %for.end, !UID !16, !BB_UID !17</text>
<polyline fill="none" stroke="#000000" points="199,-872.5 666,-872.5 "/>
<text text-anchor="middle" x="316" y="-857.3" font-family="Times,serif" font-size="14.00" fill="#000000">T</text>
<polyline fill="none" stroke="#000000" points="433,-849.5 433,-872.5 "/>
<text text-anchor="middle" x="549.5" y="-857.3" font-family="Times,serif" font-size="14.00" fill="#000000">F</text>
</g>
<!-- Node0x563f7001b540&#45;&gt;Node0x563f700267f0 -->
<g id="edge1" class="edge">
<title>Node0x563f7001b540&#45;&gt;Node0x563f700267f0</title>
<path fill="none" stroke="#000000" d="M432.5,-1097.3396C432.5,-1089.9451 432.5,-1080.8541 432.5,-1070.874"/>
<polygon fill="#000000" stroke="#000000" points="436.0001,-1070.6275 432.5,-1060.6275 429.0001,-1070.6276 436.0001,-1070.6275"/>
</g>
<!-- Node0x563f70026840 -->
<g id="node3" class="node">
<title>Node0x563f70026840</title>
<polygon fill="none" stroke="#000000" points="130,-744.5 130,-812.5 419,-812.5 419,-744.5 130,-744.5"/>
<text text-anchor="start" x="138" y="-797.3" font-family="Times,serif" font-size="14.00" fill="#000000">for.body5.lr.ph: </text>
<text text-anchor="start" x="138" y="-782.3" font-family="Times,serif" font-size="14.00" fill="#000000"> %2 = sext i32 %0 to i64, !UID !18</text>
<text text-anchor="start" x="138" y="-767.3" font-family="Times,serif" font-size="14.00" fill="#000000"> %wide.trip.count = sext i32 %1 to i64, !UID !19</text>
<text text-anchor="start" x="138" y="-752.3" font-family="Times,serif" font-size="14.00" fill="#000000"> br label %for.body5, !UID !20, !BB_UID !21</text>
</g>
<!-- Node0x563f700267f0&#45;&gt;Node0x563f70026840 -->
<g id="edge2" class="edge">
<title>Node0x563f700267f0:s0&#45;&gt;Node0x563f70026840</title>
<path fill="none" stroke="#000000" d="M315.5,-849C315.5,-839.5379 312.706,-830.2116 308.5768,-821.5951"/>
<polygon fill="#000000" stroke="#000000" points="311.5038,-819.6522 303.6411,-812.5509 305.3593,-823.0055 311.5038,-819.6522"/>
</g>
<!-- Node0x563f70026930 -->
<g id="node4" class="node">
<title>Node0x563f70026930</title>
<polygon fill="none" stroke="#000000" points="166.5,-98.5 166.5,-249.5 626.5,-249.5 626.5,-98.5 166.5,-98.5"/>
<text text-anchor="start" x="174.5" y="-234.3" font-family="Times,serif" font-size="14.00" fill="#000000">for.end: </text>
<text text-anchor="start" x="174.5" y="-219.3" font-family="Times,serif" font-size="14.00" fill="#000000"> %sum.0.lcssa = phi double [ 0.000000e+00, %for.body ], [ %add12,</text>
<text text-anchor="start" x="174.5" y="-204.3" font-family="Times,serif" font-size="14.00" fill="#000000">... %for.end.loopexit ], !UID !41</text>
<text text-anchor="start" x="174.5" y="-189.3" font-family="Times,serif" font-size="14.00" fill="#000000"> %arrayidx14 = getelementptr inbounds double, double* %out, i64</text>
<text text-anchor="start" x="174.5" y="-174.3" font-family="Times,serif" font-size="14.00" fill="#000000">... %indvars.iv37, !UID !42</text>
<text text-anchor="start" x="174.5" y="-159.3" font-family="Times,serif" font-size="14.00" fill="#000000"> store double %sum.0.lcssa, double* %arrayidx14, align 8, !tbaa !25, !UID !43</text>
<text text-anchor="start" x="174.5" y="-144.3" font-family="Times,serif" font-size="14.00" fill="#000000"> %exitcond39 = icmp eq i64 %indvars.iv.next38, 494, !UID !44</text>
<text text-anchor="start" x="174.5" y="-129.3" font-family="Times,serif" font-size="14.00" fill="#000000"> br i1 %exitcond39, label %for.end17, label %for.body, !UID !45, !BB_UID !46</text>
<polyline fill="none" stroke="#000000" points="166.5,-121.5 626.5,-121.5 "/>
<text text-anchor="middle" x="281.5" y="-106.3" font-family="Times,serif" font-size="14.00" fill="#000000">T</text>
<polyline fill="none" stroke="#000000" points="396.5,-98.5 396.5,-121.5 "/>
<text text-anchor="middle" x="511.5" y="-106.3" font-family="Times,serif" font-size="14.00" fill="#000000">F</text>
</g>
<!-- Node0x563f700267f0&#45;&gt;Node0x563f70026930 -->
<g id="edge3" class="edge">
<title>Node0x563f700267f0:s1&#45;&gt;Node0x563f70026930</title>
<path fill="none" stroke="#000000" d="M549.5,-849C549.5,-598.5505 634.2591,-511.6023 525.5,-286 520.6188,-275.8748 514.3557,-266.2929 507.2268,-257.3154"/>
<polygon fill="#000000" stroke="#000000" points="509.8556,-255.0031 500.7521,-249.5831 504.4887,-259.4972 509.8556,-255.0031"/>
</g>
<!-- Node0x563f70026890 -->
<g id="node5" class="node">
<title>Node0x563f70026890</title>
<polygon fill="none" stroke="#000000" points="0,-361.5 0,-707.5 465,-707.5 465,-361.5 0,-361.5"/>
<text text-anchor="start" x="8" y="-692.3" font-family="Times,serif" font-size="14.00" fill="#000000">for.body5: </text>
<text text-anchor="start" x="8" y="-677.3" font-family="Times,serif" font-size="14.00" fill="#000000"> %indvars.iv = phi i64 [ %2, %for.body5.lr.ph ], [ %indvars.iv.next,</text>
<text text-anchor="start" x="8" y="-662.3" font-family="Times,serif" font-size="14.00" fill="#000000">... %for.body5 ], !UID !22</text>
<text text-anchor="start" x="8" y="-647.3" font-family="Times,serif" font-size="14.00" fill="#000000"> %sum.034 = phi double [ 0.000000e+00, %for.body5.lr.ph ], [ %add12,</text>
<text text-anchor="start" x="8" y="-632.3" font-family="Times,serif" font-size="14.00" fill="#000000">... %for.body5 ], !UID !23</text>
<text text-anchor="start" x="8" y="-617.3" font-family="Times,serif" font-size="14.00" fill="#000000"> %arrayidx7 = getelementptr inbounds double, double* %val, i64 %indvars.iv,</text>
<text text-anchor="start" x="8" y="-602.3" font-family="Times,serif" font-size="14.00" fill="#000000">... !UID !24</text>
<text text-anchor="start" x="8" y="-587.3" font-family="Times,serif" font-size="14.00" fill="#000000"> %3 = load double, double* %arrayidx7, align 8, !tbaa !25, !UID !27</text>
<text text-anchor="start" x="8" y="-572.3" font-family="Times,serif" font-size="14.00" fill="#000000"> %arrayidx9 = getelementptr inbounds i32, i32* %cols, i64 %indvars.iv, !UID</text>
<text text-anchor="start" x="8" y="-557.3" font-family="Times,serif" font-size="14.00" fill="#000000">... !28</text>
<text text-anchor="start" x="8" y="-542.3" font-family="Times,serif" font-size="14.00" fill="#000000"> %4 = load i32, i32* %arrayidx9, align 4, !tbaa !7, !UID !29</text>
<text text-anchor="start" x="8" y="-527.3" font-family="Times,serif" font-size="14.00" fill="#000000"> %idxprom10 = sext i32 %4 to i64, !UID !30</text>
<text text-anchor="start" x="8" y="-512.3" font-family="Times,serif" font-size="14.00" fill="#000000"> %arrayidx11 = getelementptr inbounds double, double* %vec, i64 %idxprom10,</text>
<text text-anchor="start" x="8" y="-497.3" font-family="Times,serif" font-size="14.00" fill="#000000">... !UID !31</text>
<text text-anchor="start" x="8" y="-482.3" font-family="Times,serif" font-size="14.00" fill="#000000"> %5 = load double, double* %arrayidx11, align 8, !tbaa !25, !UID !32</text>
<text text-anchor="start" x="8" y="-467.3" font-family="Times,serif" font-size="14.00" fill="#000000"> %mul = fmul double %3, %5, !UID !33</text>
<text text-anchor="start" x="8" y="-452.3" font-family="Times,serif" font-size="14.00" fill="#000000"> %add12 = fadd double %sum.034, %mul, !UID !34</text>
<text text-anchor="start" x="8" y="-437.3" font-family="Times,serif" font-size="14.00" fill="#000000"> %indvars.iv.next = add nsw i64 %indvars.iv, 1, !UID !35</text>
<text text-anchor="start" x="8" y="-422.3" font-family="Times,serif" font-size="14.00" fill="#000000"> %exitcond = icmp eq i64 %indvars.iv.next, %wide.trip.count, !UID !36</text>
<text text-anchor="start" x="8" y="-407.3" font-family="Times,serif" font-size="14.00" fill="#000000"> br i1 %exitcond, label %for.end.loopexit, label %for.body5, !UID !37,</text>
<text text-anchor="start" x="8" y="-392.3" font-family="Times,serif" font-size="14.00" fill="#000000">... !BB_UID !38</text>
<polyline fill="none" stroke="#000000" points="0,-384.5 465,-384.5 "/>
<text text-anchor="middle" x="116.5" y="-369.3" font-family="Times,serif" font-size="14.00" fill="#000000">T</text>
<polyline fill="none" stroke="#000000" points="233,-361.5 233,-384.5 "/>
<text text-anchor="middle" x="349" y="-369.3" font-family="Times,serif" font-size="14.00" fill="#000000">F</text>
</g>
<!-- Node0x563f70026840&#45;&gt;Node0x563f70026890 -->
<g id="edge4" class="edge">
<title>Node0x563f70026840&#45;&gt;Node0x563f70026890</title>
<path fill="none" stroke="#000000" d="M268.6159,-744.3159C267.2444,-736.3482 265.6899,-727.3173 264.0151,-717.5878"/>
<polygon fill="#000000" stroke="#000000" points="267.4483,-716.9003 262.3026,-707.639 260.5498,-718.0878 267.4483,-716.9003"/>
</g>
<!-- Node0x563f70026930&#45;&gt;Node0x563f700267f0 -->
<g id="edge9" class="edge">
<title>Node0x563f70026930:s1&#45;&gt;Node0x563f700267f0</title>
<path fill="none" stroke="#000000" d="M511.5,-98C511.5,-98 626.5,-250 626.5,-250 599.0361,-288.9454 554.4623,-248.1556 525.5,-286 468.3329,-360.6992 507.3161,-615.1101 492.5,-708 485.5825,-751.3696 474.9755,-798.3482 464.5932,-839.5753"/>
<polygon fill="#000000" stroke="#000000" points="461.1737,-838.8209 462.1025,-849.375 467.958,-840.5453 461.1737,-838.8209"/>
</g>
<!-- Node0x563f70026980 -->
<g id="node7" class="node">
<title>Node0x563f70026980</title>
<polygon fill="none" stroke="#000000" points="180,-23.5 180,-61.5 383,-61.5 383,-23.5 180,-23.5"/>
<text text-anchor="start" x="188" y="-46.3" font-family="Times,serif" font-size="14.00" fill="#000000">for.end17: </text>
<text text-anchor="start" x="188" y="-31.3" font-family="Times,serif" font-size="14.00" fill="#000000"> ret void, !UID !47, !BB_UID !48</text>
</g>
<!-- Node0x563f70026930&#45;&gt;Node0x563f70026980 -->
<g id="edge8" class="edge">
<title>Node0x563f70026930:s0&#45;&gt;Node0x563f70026980</title>
<path fill="none" stroke="#000000" d="M281.5,-98C281.5,-89.4636 281.5,-80.1887 281.5,-71.7088"/>
<polygon fill="#000000" stroke="#000000" points="285.0001,-71.5081 281.5,-61.5081 278.0001,-71.5081 285.0001,-71.5081"/>
</g>
<!-- Node0x563f70026890&#45;&gt;Node0x563f70026890 -->
<g id="edge6" class="edge">
<title>Node0x563f70026890:s1&#45;&gt;Node0x563f70026890</title>
<path fill="none" stroke="#000000" d="M366.6107,-361.3501C439.7841,-316.1823 483,-325.2031 483,-453.5 483,-476.4818 478.3685,-495.6362 470.2624,-511.3376"/>
<polygon fill="#000000" stroke="#000000" points="467.1158,-509.7854 465.0969,-520.1861 473.1611,-513.3145 467.1158,-509.7854"/>
</g>
<!-- Node0x563f700268e0 -->
<g id="node6" class="node">
<title>Node0x563f700268e0</title>
<polygon fill="none" stroke="#000000" points="107,-286.5 107,-324.5 364,-324.5 364,-286.5 107,-286.5"/>
<text text-anchor="start" x="115" y="-309.3" font-family="Times,serif" font-size="14.00" fill="#000000">for.end.loopexit: </text>
<text text-anchor="start" x="115" y="-294.3" font-family="Times,serif" font-size="14.00" fill="#000000"> br label %for.end, !UID !39, !BB_UID !40</text>
</g>
<!-- Node0x563f70026890&#45;&gt;Node0x563f700268e0 -->
<g id="edge5" class="edge">
<title>Node0x563f70026890:s0&#45;&gt;Node0x563f700268e0</title>
<path fill="none" stroke="#000000" d="M116.5,-361.5C116.5,-349.4056 136.8782,-337.7313 160.7689,-328.2004"/>
<polygon fill="#000000" stroke="#000000" points="162.3291,-331.3515 170.4291,-324.5222 159.8382,-324.8097 162.3291,-331.3515"/>
</g>
<!-- Node0x563f700268e0&#45;&gt;Node0x563f70026930 -->
<g id="edge7" class="edge">
<title>Node0x563f700268e0&#45;&gt;Node0x563f70026930</title>
<path fill="none" stroke="#000000" d="M258.9108,-286.3788C269.2864,-277.9043 282.2689,-267.3006 296.0866,-256.0147"/>
<polygon fill="#000000" stroke="#000000" points="298.3069,-258.7204 303.8378,-249.6838 293.8788,-253.2989 298.3069,-258.7204"/>
</g>
</g>
</svg>
